<?xml version="1.0" standalone="no"?>
<!DOCTYPE svg PUBLIC "-//W3C//DTD SVG 20010904//EN"
 "http://www.w3.org/TR/2001/REC-SVG-20010904/DTD/svg10.dtd">
<svg version="1.0" xmlns="http://www.w3.org/2000/svg"
 width="1584.000000pt" height="396.000000pt" viewBox="0 0 1584.000000 396.000000"
 preserveAspectRatio="xMidYMid meet">

<g transform="translate(0.000000,396.000000) scale(0.100000,-0.100000)"
fill="#000000" stroke="none">
<path d="M0 1980 l0 -1980 2213 0 2214 0 -5 82 c-20 343 177 675 489 823 209
98 436 110 664 34 202 -68 377 -222 479 -422 71 -138 101 -272 95 -425 l-4
-92 519 0 c286 0 516 4 510 8 -5 5 -45 38 -89 74 -44 35 -156 126 -250 202
-93 77 -189 155 -213 174 l-43 34 -22 -20 c-150 -137 -399 -28 -399 175 0 101
53 185 137 220 25 10 45 23 45 30 0 6 -11 67 -25 135 -13 68 -42 220 -65 338
-22 118 -49 258 -60 310 -10 52 -37 194 -60 315 -23 121 -44 227 -47 235 -3 8
-7 31 -9 50 -3 19 -17 98 -32 175 -24 119 -31 140 -48 143 -93 15 -140 102
-99 182 23 44 53 60 111 60 l52 0 31 57 c17 31 30 57 28 58 -1 2 -96 60 -212
130 -115 70 -294 179 -397 241 -102 63 -191 114 -197 114 -6 0 -11 -5 -11 -10
0 -18 -91 -69 -134 -75 -26 -4 -57 -1 -85 9 -24 9 -45 15 -46 14 -3 -3 -555
-934 -613 -1033 -19 -33 -143 -242 -275 -465 -132 -223 -270 -457 -308 -521
-38 -64 -69 -121 -69 -125 0 -5 23 -31 50 -58 28 -27 50 -54 50 -59 0 -4 10
-5 23 -2 16 5 18 4 8 -4 -13 -8 -12 -17 2 -61 38 -117 12 -247 -65 -335 -53
-60 -103 -91 -175 -110 -76 -20 -108 -19 -187 5 -51 16 -79 33 -125 75 -77 72
-103 131 -109 247 l-4 87 -42 10 -41 10 45 -4 45 -5 33 64 c19 36 44 72 58 81
13 8 24 20 24 25 0 5 -142 191 -317 412 -174 222 -337 429 -362 462 -25 32
-172 219 -326 415 l-281 356 -48 -4 c-27 -1 -58 2 -70 9 -19 10 -62 -14 -401
-226 -209 -130 -420 -262 -470 -293 -49 -32 -241 -151 -426 -266 l-335 -209
12 -35 c17 -48 17 -144 0 -185 -32 -76 -112 -139 -195 -152 l-41 -7 0 252 0
251 23 0 c46 0 96 -22 141 -61 25 -23 52 -39 59 -36 6 2 255 156 552 342 297
185 653 407 792 493 221 138 251 159 245 177 -4 11 -6 38 -5 60 1 40 0 41 -95
108 -54 37 -223 158 -377 267 -370 263 -383 271 -654 464 l-233 166 -274 0
-274 0 0 -1980z m5995 220 c-3 -5 -12 -10 -18 -10 -7 0 -6 4 3 10 19 12 23 12
15 0z m-55 -25 c0 -2 -13 -11 -30 -20 -38 -19 -40 -11 -2 9 31 17 32 18 32 11z
m-175 -95 c-3 -5 -12 -10 -18 -10 -7 0 -6 4 3 10 19 12 23 12 15 0z m-55 -25
c0 -2 -13 -11 -30 -20 -38 -19 -40 -11 -2 9 31 17 32 18 32 11z m-70 -39 c0
-2 -7 -7 -16 -10 -8 -3 -12 -2 -9 4 6 10 25 14 25 6z m-165 -86 c-3 -5 -12
-10 -18 -10 -7 0 -6 4 3 10 19 12 23 12 15 0z m-65 -34 c0 -2 -7 -7 -16 -10
-8 -3 -12 -2 -9 4 6 10 25 14 25 6z m-165 -86 c-3 -5 -12 -10 -18 -10 -7 0 -6
4 3 10 19 12 23 12 15 0z m-66 -34 c-2 -2 -15 -9 -29 -15 -24 -11 -24 -11 -6
3 16 13 49 24 35 12z m-59 -30 c0 -2 -7 -7 -16 -10 -8 -3 -12 -2 -9 4 6 10 25
14 25 6z m-105 -56 c-3 -5 -12 -10 -18 -10 -7 0 -6 4 3 10 19 12 23 12 15 0z
m-4612 -37 c-7 -2 -19 -2 -25 0 -7 3 -2 5 12 5 14 0 19 -2 13 -5z m4546 3 c-2
-2 -15 -9 -29 -15 -24 -11 -24 -11 -6 3 16 13 49 24 35 12z m-4412 -32 c-3 -3
-12 -4 -19 -1 -8 3 -5 6 6 6 11 1 17 -2 13 -5z m4353 2 c0 -2 -7 -7 -16 -10
-8 -3 -12 -2 -9 4 6 10 25 14 25 6z m-4303 -12 c-3 -3 -12 -4 -19 -1 -8 3 -5
6 6 6 11 1 17 -2 13 -5z m86 -21 c-7 -2 -19 -2 -25 0 -7 3 -2 5 12 5 14 0 19
-2 13 -5z m4157 3 c0 -2 -7 -7 -16 -10 -8 -3 -12 -2 -9 4 6 10 25 14 25 6z
m-45 -26 c-3 -5 -12 -10 -18 -10 -7 0 -6 4 3 10 19 12 23 12 15 0z m-3978 -6
c-3 -3 -12 -4 -19 -1 -8 3 -5 6 6 6 11 1 17 -2 13 -5z m50 -10 c-3 -3 -12 -4
-19 -1 -8 3 -5 6 6 6 11 1 17 -2 13 -5z m3879 -9 c-11 -8 -25 -15 -30 -15 -6
1 0 7 14 15 32 19 40 18 16 0z m-3749 -21 c-3 -3 -12 -4 -19 -1 -8 3 -5 6 6 6
11 1 17 -2 13 -5z m90 -20 c-3 -3 -12 -4 -19 -1 -8 3 -5 6 6 6 11 1 17 -2 13
-5z m3583 2 c0 -2 -7 -7 -16 -10 -8 -3 -12 -2 -9 4 6 10 25 14 25 6z m-3537
-13 c-7 -2 -19 -2 -25 0 -7 3 -2 5 12 5 14 0 19 -2 13 -5z m3477 -17 c0 -2 -7
-7 -16 -10 -8 -3 -12 -2 -9 4 6 10 25 14 25 6z m-3337 -13 c-7 -2 -19 -2 -25
0 -7 3 -2 5 12 5 14 0 19 -2 13 -5z m3292 -13 c-3 -5 -12 -10 -18 -10 -7 0 -6
4 3 10 19 12 23 12 15 0z m-3162 -17 c-7 -2 -19 -2 -25 0 -7 3 -2 5 12 5 14 0
19 -2 13 -5z m3113 -8 c-11 -8 -25 -15 -30 -15 -6 1 0 7 14 15 32 19 40 18 16
0z m-3004 -10 c89 -19 111 -25 105 -31 -5 -6 -187 35 -187 42 0 6 1 6 82 -11z
m2928 -29 c0 -2 -7 -7 -16 -10 -8 -3 -12 -2 -9 4 6 10 25 14 25 6z m-2767 -13
c-7 -2 -19 -2 -25 0 -7 3 -2 5 12 5 14 0 19 -2 13 -5z m2707 -17 c0 -2 -7 -7
-16 -10 -8 -3 -12 -2 -9 4 6 10 25 14 25 6z m-2567 -13 c-7 -2 -19 -2 -25 0
-7 3 -2 5 12 5 14 0 19 -2 13 -5z m44 -9 c-3 -3 -12 -4 -19 -1 -8 3 -5 6 6 6
11 1 17 -2 13 -5z m96 -21 c-7 -2 -21 -2 -30 0 -10 3 -4 5 12 5 17 0 24 -2 18
-5z m2322 -13 c-3 -5 -12 -10 -18 -10 -7 0 -6 4 3 10 19 12 23 12 15 0z
m-2198 -16 c-3 -3 -12 -4 -19 -1 -8 3 -5 6 6 6 11 1 17 -2 13 -5z m50 -10 c-3
-3 -12 -4 -19 -1 -8 3 -5 6 6 6 11 1 17 -2 13 -5z m140 -30 c-3 -3 -12 -4 -19
-1 -8 3 -5 6 6 6 11 1 17 -2 13 -5z m80 -20 c-3 -3 -12 -4 -19 -1 -8 3 -5 6 6
6 11 1 17 -2 13 -5z m50 -10 c-3 -3 -12 -4 -19 -1 -8 3 -5 6 6 6 11 1 17 -2
13 -5z m163 -34 c20 -6 21 -8 5 -8 -11 0 -31 4 -45 8 -20 6 -21 8 -5 8 11 0
31 -4 45 -8z m1485 0 c-3 -5 -12 -10 -18 -10 -7 0 -6 4 3 10 19 12 23 12 15 0z
m-1428 -16 c-3 -3 -12 -4 -19 -1 -8 3 -5 6 6 6 11 1 17 -2 13 -5z m1379 -9
c-11 -8 -25 -15 -30 -15 -6 1 0 7 14 15 32 19 40 18 16 0z m-1323 -2 c-7 -2
-21 -2 -30 0 -10 3 -4 5 12 5 17 0 24 -2 18 -5z m136 -29 c9 -8 -45 -2 -64 6
-14 7 -8 8 20 3 22 -3 42 -7 44 -9z m38 -10 c-3 -3 -12 -4 -19 -1 -8 3 -5 6 6
6 11 1 17 -2 13 -5z m40 -10 c-3 -3 -12 -4 -19 -1 -8 3 -5 6 6 6 11 1 17 -2
13 -5z m78 -14 c14 -7 8 -8 -20 -3 -22 3 -42 7 -44 9 -9 8 45 2 64 -6z m62
-16 c-3 -3 -12 -4 -19 -1 -8 3 -5 6 6 6 11 1 17 -2 13 -5z m46 -11 c-7 -2 -19
-2 -25 0 -7 3 -2 5 12 5 14 0 19 -2 13 -5z m44 -9 c-3 -3 -12 -4 -19 -1 -8 3
-5 6 6 6 11 1 17 -2 13 -5z m40 -10 c-3 -3 -12 -4 -19 -1 -8 3 -5 6 6 6 11 1
17 -2 13 -5z"/>
<path d="M611 3941 c22 -17 311 -222 494 -351 44 -31 236 -167 426 -302 443
-314 392 -283 423 -263 14 9 27 29 29 43 l4 27 2 -26 c1 -21 7 -28 33 -33 18
-3 42 -16 55 -28 l23 -21 112 51 c117 52 621 283 861 393 l139 64 1 58 2 59
-85 67 c-47 37 -147 115 -222 174 l-136 107 -460 0 c-359 0 -461 -3 -465 -12
-4 -10 -6 -10 -6 0 -1 9 -133 12 -627 12 -612 0 -626 0 -603 -19z m1246 -43
c-3 -7 -5 -2 -5 12 0 14 2 19 5 13 2 -7 2 -19 0 -25z m10 -65 c-3 -10 -5 -4
-5 12 0 17 2 24 5 18 2 -7 2 -21 0 -30z m10 -70 c-3 -10 -5 -2 -5 17 0 19 2
27 5 18 2 -10 2 -26 0 -35z m10 -65 c-3 -7 -5 -2 -5 12 0 14 2 19 5 13 2 -7 2
-19 0 -25z m10 -55 c-3 -10 -5 -4 -5 12 0 17 2 24 5 18 2 -7 2 -21 0 -30z m10
-70 c-3 -10 -5 -2 -5 17 0 19 2 27 5 18 2 -10 2 -26 0 -35z m10 -65 c-3 -8 -6
-5 -6 6 -1 11 2 17 5 13 3 -3 4 -12 1 -19z m10 -60 c-3 -7 -5 -2 -5 12 0 14 2
19 5 13 2 -7 2 -19 0 -25z m10 -75 c-3 -10 -5 -4 -5 12 0 17 2 24 5 18 2 -7 2
-21 0 -30z m10 -55 c-3 -8 -6 -5 -6 6 -1 11 2 17 5 13 3 -3 4 -12 1 -19z m10
-70 c-3 -7 -5 -2 -5 12 0 14 2 19 5 13 2 -7 2 -19 0 -25z m10 -70 c-3 -7 -5
-2 -5 12 0 14 2 19 5 13 2 -7 2 -19 0 -25z"/>
<path d="M2816 3952 c5 -5 100 -80 212 -166 l203 -158 22 20 c12 11 37 27 55
36 l32 17 0 129 0 130 -267 0 c-147 0 -263 -4 -257 -8z"/>
<path d="M3360 3825 l0 -135 24 0 c47 0 116 -79 116 -131 l0 -22 238 6 c130 4
456 12 724 19 l487 12 6 33 c15 81 115 147 213 141 l56 -3 44 75 c24 41 53 90
64 108 l20 32 -996 0 -996 0 0 -135z"/>
<path d="M5307 3843 l-68 -117 32 -25 c56 -44 88 -157 59 -211 -13 -23 -19
-19 275 -198 127 -76 294 -178 372 -226 77 -47 145 -86 150 -86 5 0 99 162
209 361 l200 361 -23 126 c-12 70 -23 128 -23 130 0 1 -251 2 -557 2 l-558 -1
-68 -116z"/>
<path d="M6531 3858 c10 -57 19 -107 19 -113 0 -16 15 6 55 80 20 39 46 85 57
103 l20 32 -85 0 -84 0 18 -102z"/>
<path d="M6693 3948 c-9 -12 -94 -165 -121 -219 -11 -22 -6 -62 37 -305 28
-153 58 -322 68 -374 9 -52 18 -97 19 -99 3 -3 160 44 204 62 14 5 32 11 40
12 8 1 32 7 53 14 32 11 37 17 37 42 0 47 26 86 70 105 l41 18 -7 56 c-3 30
-9 87 -13 125 l-7 70 -17 -30 c-10 -16 -16 -23 -13 -15 3 8 10 31 16 51 10 28
8 80 -9 260 -12 123 -21 227 -21 232 0 4 -83 7 -184 7 -135 0 -186 -3 -193
-12z m378 -585 c-12 -20 -14 -14 -5 12 4 9 9 14 11 11 3 -2 0 -13 -6 -23z
m-42 -107 c-18 -42 -34 -75 -36 -73 -1 2 11 38 29 80 17 42 33 75 35 73 2 -2
-10 -38 -28 -80z"/>
<path d="M7090 3942 c-1 -52 35 -402 41 -402 4 0 11 9 14 21 4 11 9 19 11 16
2 -2 -3 -21 -11 -41 -14 -33 -14 -55 -3 -182 l12 -145 41 -18 40 -18 31 26
c29 24 107 98 574 542 96 91 189 178 205 192 l30 26 -492 0 c-460 0 -493 -1
-493 -17z m201 -49 c-12 -20 -14 -14 -5 12 4 9 9 14 11 11 3 -2 0 -13 -6 -23z
m-42 -107 c-18 -42 -33 -75 -35 -73 -2 2 10 38 27 81 18 42 33 75 35 73 2 -2
-10 -38 -27 -81z m-53 -123 c-8 -15 -15 -25 -16 -21 0 12 23 58 27 54 3 -2 -2
-17 -11 -33z m-25 -60 c-12 -20 -14 -14 -5 12 4 9 9 14 11 11 3 -2 0 -13 -6
-23z"/>
<path d="M7824 3702 c-637 -604 -573 -539 -561 -572 l11 -30 111 0 c60 0 220
4 355 10 135 5 353 12 485 16 l240 7 20 40 c16 31 52 63 82 73 3 0 -107 610
-123 687 l-6 27 -171 0 -172 -1 -271 -257z"/>
<path d="M8460 3951 c0 -6 16 -97 36 -203 19 -106 40 -215 44 -243 50 -284 45
-265 75 -265 13 0 37 -11 53 -25 17 -14 33 -25 36 -25 7 0 159 66 796 350
l395 176 3 45 3 45 -258 77 -258 77 -462 0 c-283 0 -463 -4 -463 -9z"/>
<path d="M9635 3904 c99 -30 201 -61 227 -68 46 -14 47 -14 63 11 17 25 16 26
-26 69 l-43 44 -201 -1 -200 0 180 -55z"/>
<path d="M9914 3921 c34 -35 41 -38 65 -29 39 15 84 12 126 -8 l37 -17 46 46
47 47 -180 0 -179 0 38 -39z"/>
<path d="M10205 3906 c-57 -51 -59 -54 -47 -80 6 -15 12 -45 12 -66 0 -38 1
-40 63 -68 34 -16 181 -86 327 -155 545 -257 827 -390 885 -417 33 -15 119
-56 190 -90 72 -34 148 -70 170 -80 l40 -17 41 42 42 41 -282 472 -281 472
-550 0 -550 0 -60 -54z"/>
<path d="M11390 3954 c0 -3 124 -213 276 -467 l276 -462 71 3 c60 2 78 -1 112
-20 166 -97 125 -341 -66 -382 -23 -5 -26 -12 -36 -83 -6 -43 -34 -222 -63
-398 -58 -360 -80 -498 -124 -780 -34 -217 -77 -482 -82 -505 -4 -21 1 -27 25
-36 39 -15 64 -56 64 -105 0 -52 -28 -90 -80 -108 -37 -13 -43 -13 -86 8 l-46
22 -218 -188 c-119 -103 -264 -229 -322 -279 -58 -50 -126 -110 -151 -132
l-45 -41 2473 -1 2472 0 0 1980 0 1980 -1825 0 -1825 0 -56 -45 c-93 -76 -194
-115 -300 -115 -101 0 -248 63 -313 134 -21 22 -33 26 -78 26 -29 0 -53 -3
-53 -6z m1638 -411 c30 29 41 34 50 25 7 -7 12 -16 12 -20 0 -15 -82 -98 -96
-98 -13 0 -56 39 -93 83 -11 14 -11 20 -1 32 12 14 18 11 52 -22 l38 -37 38
37z m772 -154 c0 -119 0 -120 -22 -117 -22 3 -23 7 -26 121 l-3 117 26 0 25 0
0 -121z m1150 1 l0 -120 -25 0 -25 0 0 120 0 120 25 0 25 0 0 -120z m-2114 41
l-39 -40 36 -38 c33 -33 35 -39 22 -52 -13 -14 -20 -10 -60 29 -25 24 -45 51
-45 60 0 8 21 37 46 64 42 45 47 47 62 32 15 -15 13 -19 -22 -55z m355 18 c24
-28 45 -54 47 -58 1 -3 -20 -29 -47 -55 -43 -43 -52 -47 -66 -36 -14 12 -12
17 22 52 l37 38 -39 40 c-32 33 -36 41 -25 55 7 8 16 15 20 15 4 0 27 -23 51
-51z m319 31 c24 -24 26 -57 4 -82 -12 -12 -14 -21 -6 -30 5 -7 12 -31 14 -53
3 -37 1 -40 -22 -40 -22 0 -26 5 -30 40 -5 38 -7 40 -42 43 l-38 3 0 -45 c0
-42 -2 -46 -25 -46 l-25 0 0 115 0 115 75 0 c62 0 79 -4 95 -20z m740 5 c0
-10 -10 -15 -30 -15 -20 0 -30 5 -30 15 0 10 10 15 30 15 20 0 30 -5 30 -15z
m895 -87 c21 -57 40 -109 42 -115 3 -7 -2 -13 -10 -13 -8 0 -20 14 -26 30 -9
28 -13 30 -65 30 -51 0 -55 -2 -65 -30 -10 -29 -31 -42 -31 -19 0 6 17 58 38
115 31 87 40 104 58 104 17 0 27 -17 59 -102z m195 92 c0 -5 -11 -10 -25 -10
-25 0 -25 -1 -25 -89 0 -84 1 -90 22 -93 12 -2 23 -9 26 -15 3 -10 -13 -13
-57 -13 -48 0 -61 3 -61 15 0 8 9 15 20 15 19 0 20 7 20 90 0 83 -1 90 -20 90
-11 0 -20 5 -20 10 0 6 27 10 60 10 33 0 60 -4 60 -10z m-1220 -31 c0 -14 7
-19 25 -19 16 0 25 -6 25 -15 0 -9 -9 -15 -25 -15 -23 0 -25 -3 -25 -50 0 -43
3 -50 20 -50 13 0 20 -7 20 -20 0 -15 -7 -20 -29 -20 -43 0 -61 23 -61 80 0
35 -5 52 -16 58 -15 8 -13 14 17 45 35 37 49 39 49 6z m-428 -23 c21 -15 41
-64 34 -83 -4 -9 -25 -13 -65 -13 -49 0 -59 -3 -55 -15 8 -19 43 -30 57 -16
13 13 57 15 57 2 0 -24 -34 -41 -81 -41 -45 0 -51 3 -69 33 -28 46 -26 83 9
118 32 32 82 39 113 15z m253 5 c3 -5 21 -7 41 -4 l35 6 -3 -84 c-3 -78 -4
-84 -25 -87 -14 -2 -23 2 -23 9 0 10 -3 10 -12 1 -18 -18 -82 -15 -100 6 -35
39 -29 129 10 152 22 12 69 13 77 1z m477 -11 c44 -34 43 -126 -2 -150 -24
-13 -86 -13 -110 0 -24 13 -43 70 -34 104 15 60 97 85 146 46z m212 4 c12 -11
16 -36 16 -90 0 -67 -2 -74 -20 -74 -17 0 -20 7 -20 53 0 59 -18 94 -44 84
-21 -8 -36 -48 -36 -98 0 -36 -2 -40 -22 -37 -22 3 -23 9 -26 87 l-3 84 34 -6
c19 -3 40 -1 48 4 22 14 56 11 73 -7z m160 8 c3 -5 19 -7 36 -4 l30 4 0 -84 0
-85 -67 -1 c-78 -1 -99 12 -109 65 -7 38 10 88 35 103 20 12 68 13 75 2z
m-554 -88 c0 -83 -1 -85 -22 -82 -21 3 -23 9 -26 86 -3 82 -3 82 23 82 25 0
25 -1 25 -86z m-1198 -60 c50 -53 51 -54 38 -74 -8 -12 -16 -8 -50 25 l-41 40
-36 -39 c-32 -35 -37 -37 -51 -22 -15 15 -12 20 33 66 27 27 53 50 57 50 4 0
26 -21 50 -46z"/>
<path d="M13390 3430 c0 -28 2 -30 39 -30 27 0 41 5 45 16 10 25 -12 44 -50
44 -31 0 -34 -3 -34 -30z"/>
<path d="M15062 3413 l-21 -63 45 0 c51 0 51 1 15 85 l-17 40 -22 -62z"/>
<path d="M13607 3396 c-5 -13 2 -16 34 -16 28 0 39 4 37 13 -7 19 -64 21 -71
3z"/>
<path d="M13888 3385 c-16 -36 3 -75 37 -75 33 0 50 35 36 73 -14 36 -57 38
-73 2z"/>
<path d="M14331 3391 c-24 -44 -3 -86 40 -79 32 4 45 31 33 65 -12 36 -57 44
-73 14z"/>
<path d="M14739 3386 c-7 -14 -9 -36 -5 -51 6 -22 11 -26 39 -23 29 3 32 6 35
42 4 40 -8 56 -41 56 -9 0 -22 -11 -28 -24z"/>
<path d="M10143 3688 c-21 -23 -29 -8 119 -226 202 -298 540 -797 630 -932
l91 -135 42 3 c33 3 48 -2 73 -23 l31 -26 218 112 c120 61 263 135 318 164 55
29 119 62 142 74 l42 21 -16 37 c-15 36 -14 107 1 143 5 13 -44 40 -236 130
-134 62 -304 143 -378 178 -74 35 -162 77 -195 92 -90 42 -752 354 -812 383
-51 24 -52 24 -70 5z"/>
<path d="M9770 3642 c-69 -31 -161 -73 -205 -92 -44 -19 -253 -112 -465 -206
l-385 -172 3 -36 c2 -20 -4 -50 -12 -68 -15 -29 -15 -33 1 -52 27 -31 220
-242 284 -311 31 -33 72 -77 91 -99 l34 -38 41 20 c69 36 158 47 228 29 33 -8
60 -15 61 -14 1 1 103 205 227 452 124 248 241 481 261 519 l36 70 -27 28
c-15 15 -32 28 -37 27 -6 0 -67 -26 -136 -57z"/>
<path d="M6347 3327 c-102 -183 -189 -340 -192 -349 -5 -11 19 -31 95 -77
l101 -62 152 47 c84 26 156 51 161 55 10 9 -114 719 -125 719 -4 0 -90 -150
-192 -333z"/>
<path d="M10076 3639 c-10 -6 -35 -9 -56 -6 l-38 5 -256 -518 c-141 -284 -256
-521 -255 -526 0 -5 19 -23 42 -39 58 -43 101 -103 122 -173 l18 -60 261 -6
c144 -3 430 -7 636 -9 l375 -2 21 43 21 42 -80 118 c-44 64 -168 248 -275 407
-108 160 -250 369 -315 465 -66 96 -133 196 -149 223 -31 49 -40 54 -72 36z"/>
<path d="M4685 3544 c-11 -1 -282 -8 -602 -15 l-583 -12 -17 -36 c-15 -30 -61
-66 -105 -83 -4 -2 4 -122 17 -268 27 -296 38 -418 95 -1065 22 -247 47 -519
55 -604 8 -85 15 -160 15 -166 0 -7 21 -15 48 -18 26 -3 67 -12 92 -21 24 -8
45 -14 46 -13 1 1 37 63 81 137 43 74 263 446 487 825 225 380 453 767 508
860 56 94 122 206 148 249 l48 80 -29 35 c-15 20 -32 54 -37 76 l-8 40 -119 1
c-66 1 -129 0 -140 -2z"/>
<path d="M2874 3316 c-192 -89 -395 -181 -449 -206 -337 -153 -317 -142 -320
-178 -2 -18 -8 -38 -14 -46 -11 -13 -10 -15 352 -476 364 -463 891 -1131 914
-1159 29 -34 29 -34 56 -17 14 10 48 23 74 30 l48 13 -3 59 c-2 32 -16 205
-32 384 -16 179 -43 480 -60 670 -16 190 -35 390 -40 445 -5 55 -17 181 -25
280 -26 306 -21 282 -63 296 -20 7 -48 24 -62 39 l-25 27 -351 -161z"/>
<path d="M8255 3110 c-104 -4 -310 -11 -458 -15 -147 -4 -324 -10 -395 -14
l-127 -6 -3 -27 c-4 -37 -55 -86 -97 -94 -19 -3 -36 -13 -39 -23 -3 -9 -40
-186 -82 -394 l-78 -378 31 -25 c36 -28 57 -80 47 -119 -4 -18 -2 -30 7 -37
11 -8 11 -9 -2 -5 -9 3 -27 -7 -42 -23 -52 -55 -136 -47 -187 17 -19 24 -21
37 -17 85 l5 58 -205 151 c-116 85 -210 148 -218 145 -8 -3 -12 0 -9 7 2 7
-57 58 -141 120 l-145 108 -32 -23 c-18 -13 -34 -23 -35 -24 -2 0 11 -70 28
-155 16 -85 45 -235 64 -334 19 -99 48 -252 65 -340 52 -266 87 -450 125 -650
46 -244 39 -225 83 -225 90 0 172 -53 212 -135 12 -25 23 -45 23 -45 10 0 381
76 655 134 40 9 75 16 78 16 2 0 4 9 4 20 0 26 23 72 45 90 9 7 32 16 52 19
32 5 38 11 49 46 7 22 47 146 88 275 46 144 71 236 65 239 -24 8 -77 63 -89
91 -17 41 -8 125 17 158 42 56 96 73 200 60 20 -3 65 67 372 579 206 343 345
585 339 589 -6 4 -19 26 -30 50 -10 24 -22 43 -26 42 -4 -1 -92 -4 -197 -8z
m-1885 -714 c0 -2 -7 -7 -16 -10 -8 -3 -12 -2 -9 4 6 10 25 14 25 6z m-105
-56 c-3 -5 -12 -10 -18 -10 -7 0 -6 4 3 10 19 12 23 12 15 0z m-55 -25 c0 -2
-13 -11 -30 -20 -38 -19 -40 -11 -2 9 31 17 32 18 32 11z m-70 -39 c0 -2 -7
-7 -16 -10 -8 -3 -12 -2 -9 4 6 10 25 14 25 6z m749 -415 c-6 -18 -13 -30 -15
-28 -2 2 1 18 7 36 6 18 13 30 15 28 2 -2 -1 -18 -7 -36z m459 7 c29 -12 51
-23 48 -25 -5 -5 -136 47 -136 54 0 3 8 2 18 -2 9 -4 41 -16 70 -27z m167 -69
c22 -11 29 -16 15 -13 -14 4 -43 15 -65 25 -22 11 -29 16 -15 13 14 -4 43 -15
65 -25z m-764 -276 c-12 -20 -14 -14 -5 12 4 9 9 14 11 11 3 -2 0 -13 -6 -23z"/>
<path d="M6975 3018 c-16 -5 -39 -13 -50 -18 -11 -4 -63 -20 -115 -35 -52 -15
-99 -31 -103 -35 -5 -4 -4 -34 3 -66 18 -92 19 -94 49 -94 40 0 111 -40 144
-82 21 -26 31 -52 35 -87 7 -79 -4 -117 -51 -165 -94 -98 -224 -81 -317 39
-21 28 -25 122 -6 165 l15 36 -120 71 -119 72 -101 -32 -102 -32 -13 -50 c-7
-28 -13 -51 -14 -52 0 -1 68 -52 151 -113 141 -104 154 -111 178 -101 24 11
25 10 7 -4 -11 -8 -18 -17 -15 -19 2 -2 93 -69 201 -150 l198 -146 32 20 c18
11 47 20 64 20 36 0 27 -30 99 320 20 96 49 237 66 313 16 76 29 143 29 150 0
7 -13 18 -28 25 -16 7 -35 23 -42 37 -14 27 -28 29 -75 13z m-81 -87 c-9 -23
-18 -40 -20 -38 -2 2 4 22 13 45 9 23 18 40 20 38 2 -2 -4 -22 -13 -45z m-399
-471 c-3 -5 -12 -10 -18 -10 -7 0 -6 4 3 10 19 12 23 12 15 0z"/>
<path d="M8647 3009 c-10 -6 -41 -9 -68 -7 l-50 3 -350 -583 -351 -584 20 -21
c34 -38 43 -67 41 -124 l-3 -56 95 -48 c52 -26 91 -48 86 -48 -4 -1 -48 19
-98 44 l-90 46 -26 -32 c-31 -37 -78 -59 -126 -59 l-33 0 -86 -273 c-78 -242
-85 -273 -71 -282 9 -5 25 -18 36 -29 21 -19 -13 -32 742 269 l79 31 -1 60 c0
50 -4 61 -22 70 -12 6 -25 14 -28 18 -9 9 29 -4 43 -15 6 -5 20 1 34 16 41 44
132 54 161 19 6 -8 17 -14 23 -13 10 0 234 289 335 432 24 34 60 82 81 107 68
82 67 80 27 136 -101 140 -94 300 17 430 l34 39 -86 95 c-253 283 -334 370
-340 370 -4 0 -15 -5 -25 -11z m-381 -1567 c-5 -4 -166 76 -166 83 0 3 38 -14
85 -37 46 -23 83 -44 81 -46z m59 -22 c3 -5 -4 -6 -15 -3 -11 3 -22 9 -25 13
-3 5 4 6 15 3 11 -3 22 -9 25 -13z"/>
<path d="M6101 2885 l-32 -56 29 -30 30 -30 86 27 c47 14 88 30 91 34 5 7
-122 92 -157 105 -11 4 -24 -10 -47 -50z"/>
<path d="M6522 2875 c-73 -23 -135 -45 -138 -48 -3 -2 41 -33 97 -67 100 -63
102 -63 128 -46 14 9 41 24 60 34 33 17 33 17 27 71 -9 77 -16 101 -30 100 -6
0 -71 -20 -144 -44z"/>
<path d="M11844 2701 c-5 -4 -135 -72 -289 -151 -436 -222 -425 -215 -425
-254 0 -19 -9 -45 -21 -60 l-21 -27 40 -92 c103 -236 257 -588 327 -747 43
-96 113 -255 155 -353 43 -98 80 -180 82 -182 2 -2 13 -2 23 1 18 4 25 35 63
277 24 150 56 353 73 452 27 169 37 228 74 465 8 52 33 205 54 340 42 256 41
260 -4 260 -22 0 -56 20 -96 57 -14 13 -29 19 -35 14z"/>
<path d="M9647 2251 c-8 -69 -48 -148 -99 -198 -46 -44 -109 -83 -134 -83 -18
0 -15 -43 11 -150 7 -30 58 -250 112 -487 98 -433 98 -433 124 -433 26 0 69
-36 69 -58 0 -7 4 -12 10 -12 13 0 -8 -49 -34 -78 l-20 -23 120 -362 121 -362
201 -3 201 -2 26 87 c15 49 66 216 115 373 48 157 102 331 120 388 l31 103
-30 35 c-32 36 -35 43 -31 84 5 59 41 96 104 110 33 6 11 -58 277 818 l62 202
-27 21 c-15 12 -32 32 -36 45 l-10 24 -267 1 c-148 0 -435 3 -639 5 l-371 4
-6 -49z m848 -1231 c-11 -5 -29 -8 -40 -8 -16 0 -15 2 5 8 34 11 60 11 35 0z
m-110 -30 c-11 -5 -29 -8 -40 -8 -16 0 -15 2 5 8 34 11 60 11 35 0z m-66 -14
c-7 -7 -131 -37 -136 -33 -2 3 22 11 54 20 59 15 90 20 82 13z m-164 -46 c-11
-5 -29 -8 -40 -8 -16 0 -15 2 5 8 34 11 60 11 35 0z m-115 -30 c-34 -11 -60
-11 -35 0 11 5 29 8 40 8 16 0 15 -2 -5 -8z m-110 -30 c-34 -11 -60 -11 -35 0
11 5 29 8 40 8 16 0 15 -2 -5 -8z m-95 -25 c-22 -8 -49 -13 -60 -13 -11 0 0 6
25 13 59 17 87 17 35 0z"/>
<path d="M11043 2202 c-14 -2 -25 -14 -32 -35 -15 -47 -79 -258 -197 -646
-104 -341 -108 -360 -71 -361 4 0 16 -15 27 -33 48 -78 6 -166 -85 -176 l-47
-6 -30 -95 c-16 -52 -49 -158 -73 -235 -24 -77 -75 -243 -114 -369 -39 -126
-71 -233 -71 -238 0 -4 115 -8 256 -8 l256 0 32 26 c17 15 187 162 378 327
l347 300 -3 55 c-4 50 -1 58 25 86 16 17 29 34 29 38 0 7 -58 142 -209 486
-278 632 -335 761 -359 817 -30 71 -31 72 -59 67z m-196 -1188 c-3 -3 -12 -4
-19 -1 -8 3 -5 6 6 6 11 1 17 -2 13 -5z m100 -30 c-3 -3 -12 -4 -19 -1 -8 3
-5 6 6 6 11 1 17 -2 13 -5z m90 -30 c-3 -3 -12 -4 -19 -1 -8 3 -5 6 6 6 11 1
17 -2 13 -5z m90 -30 c-3 -3 -12 -4 -19 -1 -8 3 -5 6 6 6 11 1 17 -2 13 -5z
m190 -60 c-3 -3 -12 -4 -19 -1 -8 3 -5 6 6 6 11 1 17 -2 13 -5z m90 -30 c-3
-3 -12 -4 -19 -1 -8 3 -5 6 6 6 11 1 17 -2 13 -5z"/>
<path d="M9026 1923 c-41 -54 -101 -132 -133 -173 -32 -41 -107 -139 -167
-218 -105 -139 -108 -143 -96 -172 7 -17 10 -42 7 -57 -3 -18 0 -31 11 -40 15
-11 15 -11 -3 -7 -13 3 -28 -2 -39 -15 -18 -20 -17 -22 17 -108 20 -48 84
-205 142 -348 59 -143 122 -299 141 -347 31 -76 39 -88 65 -93 16 -4 31 -10
34 -15 3 -5 76 46 161 113 273 214 347 270 340 259 -3 -6 -106 -89 -229 -184
-280 -218 -260 -198 -256 -245 3 -29 0 -39 -11 -41 -81 -10 -87 -14 -196 -123
l-109 -109 304 0 304 0 -19 23 -19 22 26 -23 c25 -22 29 -22 318 -22 230 0
292 3 289 13 -3 6 -58 171 -123 365 -106 316 -121 352 -140 352 -12 0 -30 6
-41 14 -17 13 -23 12 -54 -10 l-35 -25 31 28 c26 23 31 33 27 61 -4 27 -14 37
-52 57 -52 27 -50 34 3 9 33 -16 35 -16 64 7 17 13 29 31 27 39 -2 8 -34 146
-70 305 -56 246 -133 574 -166 705 l-8 35 -69 1 c-64 1 -103 13 -194 62 -3 2
-40 -41 -82 -95z m-258 -714 c40 -17 70 -34 68 -36 -2 -2 -41 14 -87 37 -97
47 -87 47 19 -1z m178 -82 c16 -9 26 -16 23 -17 -10 0 -119 51 -119 56 0 5 55
-17 96 -39z m118 -53 c60 -27 78 -43 23 -20 -42 17 -94 45 -86 46 4 0 32 -12
63 -26z m164 -75 c40 -17 70 -34 68 -36 -2 -2 -41 14 -87 37 -97 47 -87 47 19
-1z m200 -90 c12 -5 22 -11 22 -14 0 -3 -17 2 -37 11 -21 9 -48 20 -60 25 -13
5 -23 11 -23 14 0 3 17 -2 38 -11 20 -9 47 -20 60 -25z m-258 -785 c0 -8 -129
91 -130 99 0 4 29 -16 65 -44 36 -28 65 -53 65 -55z m41 -31 c13 -16 12 -17
-3 -4 -17 13 -22 21 -14 21 2 0 10 -8 17 -17z"/>
<path d="M8000 1083 c-217 -86 -395 -157 -396 -157 0 -1 1 -21 4 -46 l4 -46
191 -76 c106 -43 394 -159 641 -258 425 -171 498 -195 483 -157 -3 7 -31 75
-62 152 -31 77 -93 228 -137 335 -44 107 -96 236 -116 286 l-36 91 -48 -5
c-36 -3 -56 1 -83 17 -20 11 -39 21 -43 21 -4 -1 -185 -71 -402 -157z"/>
<path d="M7315 834 c-9 -3 -321 -69 -550 -115 -140 -28 -130 -22 -131 -77 -2
-38 -18 -93 -41 -133 -2 -3 27 -30 64 -60 37 -30 177 -143 310 -251 l243 -198
284 0 283 0 -68 190 c-37 105 -98 276 -136 380 l-68 190 -32 0 c-34 0 -93 42
-93 66 0 13 -40 18 -65 8z"/>
<path d="M7562 784 c-19 -19 -32 -40 -30 -47 2 -8 61 -176 133 -375 l130 -362
445 0 445 0 112 113 c110 110 112 113 107 149 -4 20 -12 39 -18 41 -48 19
-1058 426 -1155 466 -69 28 -127 50 -130 50 -3 -1 -21 -17 -39 -35z"/>
</g>
</svg>
